<svg width="32" height="40" viewBox="0 0 32 40" fill="none" xmlns="http://www.w3.org/2000/svg">
<path d="M16.122 16.0676C15.7762 16.4132 15.7311 16.9583 16.0154 17.3562L31.0652 38.4186C31.5381 39.0805 31.065 40 30.2515 40H1C0.447716 40 0 39.5523 0 39V0.999999C0 0.447714 0.447715 0 1 0H29.7803C30.6713 0 31.1174 1.07731 30.4873 1.70723L16.122 16.0676ZM14.7142 19.1207C14.3551 18.6181 13.6306 18.5581 13.1936 18.9949L2.42042 29.7644C2.2328 29.952 2.1274 30.2064 2.1274 30.4716V36.8733C2.1274 37.4256 2.57512 37.8733 3.1274 37.8733H26.1713C26.9848 37.8733 27.4579 36.9538 26.985 36.2919L14.7142 19.1207Z" fill="#4E4F54"/>
</svg>
